<svg width="1024" height="1024" viewBox="0 0 1024 1024" fill="none" xmlns="http://www.w3.org/2000/svg">
  <defs>
    <linearGradient id="bg" x1="0" y1="0" x2="0" y2="1">
      <stop offset="0" stop-color="#162334"/>
      <stop offset="1" stop-color="#0D1521"/>
    </linearGradient>
    <linearGradient id="teal" x1="0" y1="0" x2="0" y2="1">
      <stop offset="0" stop-color="#7BD5E5"/>
      <stop offset="1" stop-color="#3FA9BD"/>
    </linearGradient>
    <linearGradient id="ink" x1="0" y1="0" x2="0" y2="1">
      <stop offset="0" stop-color="#F5FAFF"/>
      <stop offset="1" stop-color="#CBD6E1"/>
    </linearGradient>
    <linearGradient id="glassPurple" x1="0" y1="0" x2="0" y2="1">
      <stop offset="0"    stop-color="#E8D6FF" stop-opacity="0.85"/>
      <stop offset="0.18" stop-color="#B07BFF" stop-opacity="0.78"/>
      <stop offset="0.62" stop-color="#7C3AED" stop-opacity="0.78"/>
      <stop offset="1"    stop-color="#4C1D95" stop-opacity="0.85"/>
    </linearGradient>
    <linearGradient id="glassSpec" x1="0" y1="0" x2="0" y2="1">
      <stop offset="0" stop-color="#FFFFFF" stop-opacity="0.55"/>
      <stop offset="1" stop-color="#FFFFFF" stop-opacity="0"/>
    </linearGradient>
    <linearGradient id="edgeHighlight" x1="0" y1="0" x2="0" y2="1">
      <stop offset="0"    stop-color="#FFFFFF" stop-opacity="0.45"/>
      <stop offset="0.55" stop-color="#FFFFFF" stop-opacity="0.18"/>
      <stop offset="1"    stop-color="#FFFFFF" stop-opacity="0"/>
    </linearGradient>

    <clipPath id="leftHalf">
      <path d="M 160 420 L 560 420 L 460 760 L 160 760 Z"/>
    </clipPath>
    <clipPath id="rightHalf">
      <path d="M 560 420 L 880 420 L 880 760 L 460 760 Z"/>
    </clipPath>
    <clipPath id="arrowClip">
      <path d="M 430 180 L 594 180 L 594 540 L 704 540 L 512 760 L 320 540 L 430 540 Z"/>
    </clipPath>

    <filter id="arrowShadow" x="-20%" y="-10%" width="140%" height="130%">
      <feGaussianBlur in="SourceAlpha" stdDeviation="14"/>
      <feOffset dy="16"/>
      <feComponentTransfer><feFuncA type="linear" slope="0.5"/></feComponentTransfer>
      <feMerge><feMergeNode/><feMergeNode in="SourceGraphic"/></feMerge>
    </filter>
  </defs>

  <rect x="82" y="82" width="860" height="860" rx="224" fill="#0D1521"/>
  <rect x="112" y="112" width="800" height="800" rx="184" fill="url(#bg)"/>

  <g>
    <g clip-path="url(#leftHalf)">
      <path d="M 160 420 L 560 420 L 460 760 L 160 760 Z" fill="url(#ink)"/>
      <rect x="160" y="420" width="720" height="48" fill="#0D1521" fill-opacity="0.10"/>
      <rect x="160" y="712" width="720" height="48" fill="#0D1521" fill-opacity="0.10"/>
      <g fill="#0D1521">
        <rect x="190" y="434" width="36" height="22" rx="5"/>
        <rect x="250" y="434" width="36" height="22" rx="5"/>
        <rect x="310" y="434" width="36" height="22" rx="5"/>
        <rect x="370" y="434" width="36" height="22" rx="5"/>
        <rect x="430" y="434" width="36" height="22" rx="5"/>
        <rect x="490" y="434" width="36" height="22" rx="5"/>
        <rect x="550" y="434" width="36" height="22" rx="5"/>
        <rect x="610" y="434" width="36" height="22" rx="5"/>
        <rect x="670" y="434" width="36" height="22" rx="5"/>
        <rect x="730" y="434" width="36" height="22" rx="5"/>
        <rect x="790" y="434" width="36" height="22" rx="5"/>
      </g>
      <g fill="#0D1521">
        <rect x="190" y="722" width="36" height="22" rx="5"/>
        <rect x="250" y="722" width="36" height="22" rx="5"/>
        <rect x="310" y="722" width="36" height="22" rx="5"/>
        <rect x="370" y="722" width="36" height="22" rx="5"/>
        <rect x="430" y="722" width="36" height="22" rx="5"/>
        <rect x="490" y="722" width="36" height="22" rx="5"/>
        <rect x="550" y="722" width="36" height="22" rx="5"/>
        <rect x="610" y="722" width="36" height="22" rx="5"/>
        <rect x="670" y="722" width="36" height="22" rx="5"/>
        <rect x="730" y="722" width="36" height="22" rx="5"/>
        <rect x="790" y="722" width="36" height="22" rx="5"/>
      </g>
      <g stroke="#0D1521" stroke-opacity="0.18" stroke-width="3">
        <line x1="280" y1="472" x2="280" y2="708"/>
        <line x1="400" y1="472" x2="400" y2="708"/>
        <line x1="520" y1="472" x2="520" y2="708"/>
        <line x1="640" y1="472" x2="640" y2="708"/>
        <line x1="760" y1="472" x2="760" y2="708"/>
      </g>
    </g>
    <g clip-path="url(#rightHalf)">
      <path d="M 560 420 L 880 420 L 880 760 L 460 760 Z" fill="url(#teal)"/>
      <rect x="160" y="420" width="720" height="48" fill="#02050B" fill-opacity="0.20"/>
      <rect x="160" y="712" width="720" height="48" fill="#02050B" fill-opacity="0.20"/>
      <g fill="#0D1521">
        <rect x="190" y="434" width="36" height="22" rx="5"/>
        <rect x="250" y="434" width="36" height="22" rx="5"/>
        <rect x="310" y="434" width="36" height="22" rx="5"/>
        <rect x="370" y="434" width="36" height="22" rx="5"/>
        <rect x="430" y="434" width="36" height="22" rx="5"/>
        <rect x="490" y="434" width="36" height="22" rx="5"/>
        <rect x="550" y="434" width="36" height="22" rx="5"/>
        <rect x="610" y="434" width="36" height="22" rx="5"/>
        <rect x="670" y="434" width="36" height="22" rx="5"/>
        <rect x="730" y="434" width="36" height="22" rx="5"/>
        <rect x="790" y="434" width="36" height="22" rx="5"/>
      </g>
      <g fill="#0D1521">
        <rect x="190" y="722" width="36" height="22" rx="5"/>
        <rect x="250" y="722" width="36" height="22" rx="5"/>
        <rect x="310" y="722" width="36" height="22" rx="5"/>
        <rect x="370" y="722" width="36" height="22" rx="5"/>
        <rect x="430" y="722" width="36" height="22" rx="5"/>
        <rect x="490" y="722" width="36" height="22" rx="5"/>
        <rect x="550" y="722" width="36" height="22" rx="5"/>
        <rect x="610" y="722" width="36" height="22" rx="5"/>
        <rect x="670" y="722" width="36" height="22" rx="5"/>
        <rect x="730" y="722" width="36" height="22" rx="5"/>
        <rect x="790" y="722" width="36" height="22" rx="5"/>
      </g>
      <g stroke="#0D1521" stroke-opacity="0.25" stroke-width="3">
        <line x1="280" y1="472" x2="280" y2="708"/>
        <line x1="400" y1="472" x2="400" y2="708"/>
        <line x1="520" y1="472" x2="520" y2="708"/>
        <line x1="640" y1="472" x2="640" y2="708"/>
        <line x1="760" y1="472" x2="760" y2="708"/>
      </g>
    </g>
  </g>

  <line x1="560" y1="420" x2="460" y2="760" stroke="#0D1521" stroke-opacity="0.45" stroke-width="4"/>

  <g filter="url(#arrowShadow)">
    <path d="M 430 180 L 594 180 L 594 540 L 704 540 L 512 760 L 320 540 L 430 540 Z"
          fill="url(#glassPurple)"
          stroke="#B07BFF" stroke-opacity="0.55" stroke-width="3" stroke-linejoin="round"/>
    <g clip-path="url(#arrowClip)">
      <path d="M 430 180 L 594 180 L 594 360 L 430 360 Z" fill="url(#glassSpec)"/>
      <path d="M 436 188 L 436 540 L 360 540 L 480 690" fill="none"
            stroke="url(#edgeHighlight)" stroke-width="4" stroke-linecap="round" stroke-linejoin="round"/>
      <path d="M 444 192 L 580 192" stroke="#FFFFFF" stroke-opacity="0.65" stroke-width="5" stroke-linecap="round"/>
    </g>
  </g>
</svg>
